<?xml version="1.0" encoding="utf-8"?>
<!-- Generator: Adobe Illustrator 19.1.0, SVG Export Plug-In . SVG Version: 6.00 Build 0)  -->
<svg version="1.1" id="Layer_1" xmlns="http://www.w3.org/2000/svg" xmlns:xlink="http://www.w3.org/1999/xlink" x="0px" y="0px"
	 viewBox="-461 262.6 36.4 36.4" style="enable-background:new -461 262.6 36.4 36.4;" xml:space="preserve">
<style type="text/css">
	.st0{fill:#3399CC;}
</style>
<path class="st0" d="M-446,297c0,0.1,0,0.2,0,0.4s0,0.4,0,0.6s0,0.3-0.1,0.5c0,0.2-0.1,0.3-0.2,0.4s-0.3,0.1-0.5,0.1h-7.2
	c-1.8,0-3.3-0.6-4.6-1.9c-1.3-1.3-1.9-2.8-1.9-4.6v-15.8c0-1.8,0.6-3.3,1.9-4.6c1.3-1.3,2.8-1.9,4.6-1.9h7.2c0.2,0,0.4,0.1,0.5,0.2
	s0.2,0.3,0.2,0.5c0,0.1,0,0.2,0,0.4s0,0.4,0,0.6s0,0.3-0.1,0.5s-0.1,0.3-0.2,0.4s-0.3,0.1-0.5,0.1h-7.2c-1,0-1.8,0.4-2.5,1.1
	s-1.1,1.6-1.1,2.5v15.8c0,1,0.4,1.8,1.1,2.5s1.6,1.1,2.5,1.1h7c0,0,0.1,0,0.3,0c0.2,0,0.3,0,0.3,0.1s0.1,0.1,0.2,0.1
	c0.1,0.1,0.2,0.1,0.2,0.2S-446,296.8-446,297L-446,297z M-425.1,284.7c0,0.4-0.1,0.7-0.4,1l-12.2,12.2c-0.3,0.3-0.6,0.4-1,0.4
	s-0.7-0.1-1-0.4s-0.4-0.6-0.4-1v-6.5h-10.1c-0.4,0-0.7-0.1-1-0.4s-0.4-0.6-0.4-1v-8.6c0-0.4,0.1-0.7,0.4-1s0.6-0.4,1-0.4h10.1v-6.5
	c0-0.4,0.1-0.7,0.4-1s0.6-0.4,1-0.4s0.7,0.1,1,0.4l12.2,12.2C-425.3,284-425.1,284.3-425.1,284.7L-425.1,284.7z"/>
</svg>
